<svg width="510" height="843" viewBox="0 0 170 281" fill="none" xmlns="http://www.w3.org/2000/svg">
<path d="M169.6 0.599976V184.6C169.6 196.067 168.067 207.533 165 219C162.067 230.333 157 240.667 149.8 250C142.733 259.2 133.133 266.6 121 272.2C108.867 277.8 93.7333 280.6 75.6 280.6C62.1333 280.6 48.8667 278.467 35.8 274.2C22.8667 269.933 10.9333 263.733 0 255.6L15.4 232.6C27.4 240.067 38.3333 245.133 48.2 247.8C58.0667 250.333 67.0667 251.6 75.2 251.6C94.4 251.6 109.133 245.467 119.4 233.2C129.8 220.933 135 204.067 135 182.6V29H53.4V0.599976H169.6Z" fill="#D6AA32"/>
</svg>
